<svg width="877" height="858" viewBox="0 0 877 858" fill="none" xmlns="http://www.w3.org/2000/svg">
<mask id="mask0_38_2" style="mask-type:luminance" maskUnits="userSpaceOnUse" x="0" y="0" width="877" height="857">
<path d="M0.932129 0.619873H876.979V856.604H0.932129V0.619873Z" fill="white"/>
</mask>
<g mask="url(#mask0_38_2)">
<mask id="mask1_38_2" style="mask-type:luminance" maskUnits="userSpaceOnUse" x="0" y="0" width="876" height="857">
<path d="M94.9321 0.619873H781.812C806.739 0.619873 830.651 10.5209 848.276 28.1511C865.906 45.7813 875.812 69.6876 875.812 94.6199V762.604C875.812 787.531 865.906 811.443 848.276 829.073C830.651 846.698 806.739 856.604 781.812 856.604H94.9321C69.9998 856.604 46.0936 846.698 28.4634 829.073C10.8332 811.443 0.932129 787.531 0.932129 762.604V94.6199C0.932129 69.6876 10.8332 45.7813 28.4634 28.1511C46.0936 10.5209 69.9998 0.619873 94.9321 0.619873Z" fill="white"/>
</mask>
<g mask="url(#mask1_38_2)">
<mask id="mask2_38_2" style="mask-type:luminance" maskUnits="userSpaceOnUse" x="-1" y="0" width="878" height="858">
<path d="M877 0.333496H-0.333496V857.667H877V0.333496Z" fill="white"/>
</mask>
<g mask="url(#mask2_38_2)">
<mask id="mask3_38_2" style="mask-type:luminance" maskUnits="userSpaceOnUse" x="0" y="0" width="876" height="857">
<path d="M0.932129 0.619873H875.88V856.604H0.932129V0.619873Z" fill="white"/>
</mask>
<g mask="url(#mask3_38_2)">
<mask id="mask4_38_2" style="mask-type:luminance" maskUnits="userSpaceOnUse" x="0" y="0" width="876" height="857">
<path d="M94.9321 0.619873H781.812C806.739 0.619873 830.651 10.5209 848.276 28.1511C865.906 45.7813 875.812 69.6876 875.812 94.6199V762.604C875.812 787.531 865.906 811.443 848.276 829.073C830.651 846.698 806.739 856.604 781.812 856.604H94.9321C69.9998 856.604 46.0936 846.698 28.4634 829.073C10.8332 811.443 0.932129 787.531 0.932129 762.604V94.6199C0.932129 69.6876 10.8332 45.7813 28.4634 28.1511C46.0936 10.5209 69.9998 0.619873 94.9321 0.619873Z" fill="white"/>
</mask>
<g mask="url(#mask4_38_2)">
<path d="M0.932129 0.619873H876.979V856.604H0.932129V0.619873Z" fill="black"/>
</g>
</g>
</g>
</g>
</g>
<mask id="mask5_38_2" style="mask-type:luminance" maskUnits="userSpaceOnUse" x="197" y="59" width="278" height="523">
<path d="M474.333 59H197V581.667H474.333V59Z" fill="white"/>
</mask>
<g mask="url(#mask5_38_2)">
<path d="M280.864 196.206C262.864 196.206 249.364 200.784 240.364 209.935C231.364 219.076 224.864 234.644 220.864 256.644C220.864 257.216 220.078 257.498 218.51 257.498C216.937 257.498 216.156 257.216 216.156 256.644C217.291 246.352 218.578 232.925 220.01 216.352C221.437 199.784 222.156 187.362 222.156 179.081C222.156 177.654 222.937 176.935 224.51 176.935C226.078 176.935 226.864 177.654 226.864 179.081C226.864 185.362 234.578 188.498 250.01 188.498C274.286 189.362 303 189.789 336.156 189.789C353 189.789 370.854 189.508 389.718 188.935L418.864 188.498C429.14 188.498 436.781 187.784 441.781 186.352C446.781 184.925 449.994 182.071 451.427 177.789C451.718 176.654 452.572 176.081 453.989 176.081C455.416 176.081 456.135 176.654 456.135 177.789C455.286 186.071 454.432 198.638 453.572 215.498C452.708 232.362 452.281 246.076 452.281 256.644C452.281 257.216 451.416 257.498 449.697 257.498C447.989 257.498 447.135 257.216 447.135 256.644C446.286 234.352 441.718 218.706 433.427 209.706C425.145 200.706 411.432 196.206 392.281 196.206C379.432 196.206 370.291 196.784 364.864 197.935C359.432 199.076 355.718 201.508 353.718 205.227C351.718 208.935 350.718 215.222 350.718 224.081V421.644C350.718 430.493 351.718 436.914 353.718 440.914C355.718 444.914 359.572 447.633 365.281 449.06C371 450.493 380 451.206 392.281 451.206C393.14 451.206 393.572 452.071 393.572 453.789C393.572 455.498 393.14 456.352 392.281 456.352C382.864 456.352 375.291 456.206 369.572 455.914L336.156 455.498L304.01 455.914C298.286 456.206 290.427 456.352 280.427 456.352C279.854 456.352 279.572 455.498 279.572 453.789C279.572 452.071 279.854 451.206 280.427 451.206C292.718 451.206 301.718 450.493 307.427 449.06C313.145 447.633 317.078 444.847 319.218 440.706C321.354 436.571 322.427 430.216 322.427 421.644V223.206C322.427 214.362 321.427 208.154 319.427 204.581C317.427 200.998 313.708 198.706 308.281 197.706C302.864 196.706 293.723 196.206 280.864 196.206Z" fill="white"/>
</g>
<mask id="mask6_38_2" style="mask-type:luminance" maskUnits="userSpaceOnUse" x="335" y="268" width="320" height="523">
<path d="M654.333 268.333H335.667V791H654.333V268.333Z" fill="white"/>
</mask>
<g mask="url(#mask6_38_2)">
<path d="M640.897 397.781C641.757 397.781 642.189 398.645 642.189 400.364C642.189 402.072 641.757 402.927 640.897 402.927C628.897 402.927 620.178 406.213 614.751 412.781C609.319 419.354 606.605 430.067 606.605 444.927V670.781C606.605 671.348 605.887 671.77 604.46 672.052C603.043 672.343 602.043 672.203 601.46 671.635L404.335 432.927L400.48 428.635V618.927C400.48 633.776 403.116 644.416 408.397 650.843C413.689 657.276 422.189 660.489 433.897 660.489C434.757 660.489 435.189 661.354 435.189 663.072C435.189 664.781 434.757 665.635 433.897 665.635C426.757 665.635 421.324 665.489 417.605 665.197L396.189 664.781L374.335 665.197C370.335 665.489 364.47 665.635 356.751 665.635C356.178 665.635 355.897 664.781 355.897 663.072C355.897 661.354 356.178 660.489 356.751 660.489C369.043 660.489 377.757 657.276 382.897 650.843C388.048 644.416 390.626 633.776 390.626 618.927V418.364C379.47 408.072 368.178 402.927 356.751 402.927C355.902 402.927 355.48 402.072 355.48 400.364C355.48 398.645 355.902 397.781 356.751 397.781L372.626 398.218C376.043 398.5 380.751 398.635 386.751 398.635C393.043 398.635 398.189 398.5 402.189 398.218C406.189 397.927 409.324 397.781 411.605 397.781C413.897 397.781 415.543 398.281 416.543 399.281C417.543 400.281 419.189 402.5 421.48 405.927C424.897 411.067 428.319 415.781 431.751 420.072L596.751 622.781V444.927C596.751 430.067 594.251 419.354 589.251 412.781C584.251 406.213 575.897 402.927 564.189 402.927C563.616 402.927 563.335 402.072 563.335 400.364C563.335 398.645 563.616 397.781 564.189 397.781L580.897 398.218C589.465 398.791 596.465 399.072 601.897 399.072C607.033 399.072 614.178 398.791 623.335 398.218L640.897 397.781Z" fill="white"/>
</g>
<mask id="mask7_38_2" style="mask-type:luminance" maskUnits="userSpaceOnUse" x="271" y="317" width="233" height="280">
<path d="M271.667 317.667H503.667V596.333H271.667V317.667Z" fill="white"/>
</mask>
<g mask="url(#mask7_38_2)">
<mask id="mask8_38_2" style="mask-type:luminance" maskUnits="userSpaceOnUse" x="272" y="318" width="232" height="279">
<path d="M435.021 318.052L503.245 366.411L340.375 596.208L272.146 547.849L435.021 318.052Z" fill="white"/>
</mask>
<g mask="url(#mask8_38_2)">
<mask id="mask9_38_2" style="mask-type:luminance" maskUnits="userSpaceOnUse" x="271" y="317" width="233" height="280">
<path d="M503.667 317.667H271.667V596.333H503.667V317.667Z" fill="white"/>
</mask>
<g mask="url(#mask9_38_2)">
<mask id="mask10_38_2" style="mask-type:luminance" maskUnits="userSpaceOnUse" x="272" y="318" width="232" height="279">
<path d="M272.042 318.042H503.401V596.333H272.042V318.042Z" fill="white"/>
</mask>
<g mask="url(#mask10_38_2)">
<mask id="mask11_38_2" style="mask-type:luminance" maskUnits="userSpaceOnUse" x="272" y="318" width="232" height="279">
<path d="M435.021 318.052L503.245 366.411L340.375 596.208L272.146 547.849L435.021 318.052Z" fill="white"/>
</mask>
<g mask="url(#mask11_38_2)">
<path d="M435.021 318.052L503.245 366.411L340.417 596.146L272.193 547.786L435.021 318.052Z" fill="black"/>
</g>
</g>
</g>
</g>
</g>
<mask id="mask12_38_2" style="mask-type:luminance" maskUnits="userSpaceOnUse" x="351" y="357" width="89" height="73">
<path d="M351.667 357.667H439.667V429.667H351.667V357.667Z" fill="white"/>
</mask>
<g mask="url(#mask12_38_2)">
<mask id="mask13_38_2" style="mask-type:luminance" maskUnits="userSpaceOnUse" x="352" y="358" width="87" height="71">
<path d="M368.719 358.578L438.37 383.214L422.313 428.609L352.662 403.974L368.719 358.578Z" fill="white"/>
</mask>
<g mask="url(#mask13_38_2)">
<mask id="mask14_38_2" style="mask-type:luminance" maskUnits="userSpaceOnUse" x="351" y="357" width="89" height="73">
<path d="M439.667 357.667H351.667V429.667H439.667V357.667Z" fill="white"/>
</mask>
<g mask="url(#mask14_38_2)">
<mask id="mask15_38_2" style="mask-type:luminance" maskUnits="userSpaceOnUse" x="352" y="358" width="87" height="71">
<path d="M352.36 358.359H438.438V428.76H352.36V358.359Z" fill="white"/>
</mask>
<g mask="url(#mask15_38_2)">
<mask id="mask16_38_2" style="mask-type:luminance" maskUnits="userSpaceOnUse" x="352" y="358" width="87" height="71">
<path d="M368.719 358.578L438.37 383.214L422.313 428.609L352.662 403.974L368.719 358.578Z" fill="white"/>
</mask>
<g mask="url(#mask16_38_2)">
<path d="M368.719 358.578L438.417 383.229L422.354 428.625L352.662 403.974L368.719 358.578Z" fill="black"/>
</g>
</g>
</g>
</g>
</g>
<path d="M262.755 633.833L531.474 251.219" stroke="white" stroke-width="8"/>
</svg>
